<svg xmlns="http://www.w3.org/2000/svg"
	 viewBox="0 0 24 24" >
	<path d="M17.1,10l1.7-2.9c0.1-0.3,0-0.6-0.2-0.8c-0.1-0.1-0.3-0.1-0.4,0c-0.1,0-0.3,0.1-0.3,0.2l-1.7,2.9
		c-1.3-0.5-2.7-0.8-4.1-0.8c-1.4,0-2.8,0.3-4.1,0.8L6.2,6.5C6.1,6.4,6,6.3,5.9,6.3c-0.1,0-0.3,0-0.4,0.1C5.2,6.5,5.1,6.8,5.2,7.1
		L6.9,10c-1.4,0.8-2.6,1.9-3.4,3.3c-0.9,1.4-1.4,2.9-1.5,4.5h20c-0.1-1.6-0.6-3.1-1.5-4.5C19.7,11.9,18.5,10.8,17.1,10z M7.5,15.2
		c-0.3,0-0.6-0.1-0.8-0.3c-0.2-0.2-0.3-0.5-0.3-0.8c0-0.3,0.1-0.6,0.3-0.8C6.9,13.1,7.2,13,7.5,13c0.3,0,0.6,0.1,0.8,0.3
		c0.2,0.2,0.3,0.5,0.3,0.8c0,0.3-0.1,0.6-0.3,0.8C8,15.1,7.8,15.2,7.5,15.2z M16.5,15.2c-0.3,0-0.6-0.1-0.8-0.3
		c-0.2-0.2-0.3-0.5-0.3-0.8c0-0.3,0.1-0.6,0.3-0.8c0.2-0.2,0.5-0.3,0.8-0.3s0.6,0.1,0.8,0.3c0.2,0.2,0.3,0.5,0.3,0.8
		c0,0.3-0.1,0.6-0.3,0.8C17.1,15.1,16.8,15.2,16.5,15.2z"/>
</svg>
