<svg xmlns="http://www.w3.org/2000/svg" viewBox="0 0 24 24">
    <path id="Vector" class="st0" d="M6,15h3.6c0.3,0,0.6-0.1,0.8-0.4c0.2-0.2,0.4-0.5,0.4-0.8c0-0.3-0.1-0.6-0.4-0.8
		c-0.2-0.2-0.5-0.4-0.8-0.4H6c-0.3,0-0.6,0.1-0.8,0.4c-0.2,0.2-0.4,0.5-0.4,0.8c0,0.3,0.1,0.6,0.4,0.8C5.4,14.9,5.7,15,6,15z
		 M20.4,3H3.6c-1,0-1.9,0.4-2.5,1.1C0.4,4.7,0,5.6,0,6.6v10.8c0,1,0.4,1.9,1.1,2.5C1.7,20.6,2.6,21,3.6,21h16.8c1,0,1.9-0.4,2.5-1.1
		c0.7-0.7,1.1-1.6,1.1-2.5V6.6c0-1-0.4-1.9-1.1-2.5C22.3,3.4,21.4,3,20.4,3z M21.6,17.4c0,0.3-0.1,0.6-0.4,0.8
		c-0.2,0.2-0.5,0.4-0.8,0.4H3.6c-0.3,0-0.6-0.1-0.8-0.4c-0.2-0.2-0.4-0.5-0.4-0.8v-7.2h19.2V17.4z M21.6,7.8H2.4V6.6
		c0-0.3,0.1-0.6,0.4-0.8C3,5.5,3.3,5.4,3.6,5.4h16.8c0.3,0,0.6,0.1,0.8,0.4c0.2,0.2,0.4,0.5,0.4,0.8V7.8z"/>
</svg>