<svg xmlns="http://www.w3.org/2000/svg"
	 viewBox="0 0 24 24">
	<path d="M17,21H7c-2.2,0-4-1.8-4-4v-1c0-0.6,0.4-1,1-1s1,0.4,1,1v1c0,1.1,0.9,2,2,2h10c1.1,0,2-0.9,2-2v-1c0-0.6,0.4-1,1-1
		s1,0.4,1,1v1C21,19.2,19.2,21,17,21z M12,17c-0.1,0-0.3,0-0.4-0.1c-0.1,0-0.2-0.1-0.3-0.2h0c0,0,0,0,0,0h0c0,0,0,0,0,0c0,0,0,0,0,0
		l0,0c0,0,0,0,0,0c0,0,0,0,0,0c0,0,0,0,0,0l0,0l0,0l0,0l-4-4c-0.4-0.4-0.4-1,0-1.4c0.4-0.4,1-0.4,1.4,0l2.3,2.3V4c0-0.6,0.4-1,1-1
		s1,0.4,1,1v9.6l2.3-2.3c0.4-0.4,1-0.4,1.4,0c0.4,0.4,0.4,1,0,1.4l-4,4l0,0l0,0l0,0c0,0,0,0,0,0c0,0,0,0,0,0c0,0,0,0,0,0l0,0
		c0,0,0,0,0,0c0,0,0,0,0,0h0c0,0,0,0,0,0h0c0,0,0,0,0,0c0,0,0,0,0,0c0,0,0,0,0,0c-0.1,0.1-0.2,0.2-0.3,0.2C12.3,17,12.1,17,12,17z"
		/>

</svg>
