<svg xmlns="http://www.w3.org/2000/svg"
     viewBox="0 0 24 24">
    <path id="Vector" d="M2.9,7C2.4,7,2,7.4,2,7.9c0,0.1,0,0.2,0.1,0.3c0,0.1,0.1,0.2,0.2,0.3c0.1,0.1,0.2,0.1,0.3,0.2
			c0.1,0,0.2,0.1,0.3,0.1c0.5,0,0.9-0.4,0.9-0.9C3.8,7.4,3.4,7,2.9,7z M9.3,7.1C6.5,7.1,4.7,9,4.7,12c0,3.1,1.8,5,4.5,5
			c2.8,0,4.5-1.9,4.5-5C13.8,9,12,7.1,9.3,7.1z M18.3,7.1c-2.1,0-3.6,1.2-3.6,2.9c0,1.4,0.8,2.2,2.6,2.6l1.2,0.3
			c1.2,0.3,1.7,0.7,1.7,1.4c0,0.8-0.8,1.4-2,1.4c-1.2,0-2.1-0.6-2.2-1.5h-1.7c0.1,1.8,1.5,2.8,3.7,2.8c2.3,0,3.8-1.1,3.8-3
			c0-1.4-0.8-2.2-2.8-2.7l-1.1-0.2c-1.2-0.3-1.7-0.7-1.7-1.3c0-0.8,0.7-1.3,1.8-1.3c1.1,0,1.8,0.5,1.9,1.4h1.6
			C21.8,8.2,20.4,7.1,18.3,7.1z M9.3,8.5c1.7,0,2.8,1.4,2.8,3.5c0,2.1-1.1,3.5-2.8,3.5c-1.7,0-2.8-1.4-2.8-3.5
			C6.5,9.9,7.5,8.5,9.3,8.5z M2.1,9.8v7h1.7v-7H2.1L2.1,9.8z"/>
</svg>
